{"title":"Shadows.1959.720p.BluRay.x264-CiNEFiLE","uid":7245535,"size":3521010497,"categoryP":"video","categoryS":"hd___movies","magnet":"?xt=urn:btih:a74528528090724fc3960b52a29d0ac556be44a8&amp;dn=Shadows.1959.720p.BluRay.x264-CiNEFiLE&amp;tr=udp%3A%2F%2Ftracker.openbittorrent.com%3A80&amp;tr=udp%3A%2F%2Fopen.demonii.com%3A1337&amp;tr=udp%3A%2F%2Ftracker.coppersurfer.tk%3A6969&amp;tr=udp%3A%2F%2Fexodus.desync.com%3A6969","seeders":11,"leechers":0,"uploader":"mfccorrea","files":1,"time":1336270595,"description":"Benny's a hipster, moving in and out of Manhattan's beat scene, aimless, maybe close to trouble. His sister Lelia, who looks less African-American than White, is vulnerable and about to fall in love. Hugh, their older brother, is a struggling singer whose agent, Rupert, may be the only person with faith in his talent. The story moves back and forth, like jazz, among the three of them and what seems at first to be separate lives. Lelia meets Tony, and lets herself hope this is true love. Then he meets Hugh and prejudice gives Tony an excuse to cut and run. Can family and friendship bring solace for her hurt, purpose for Benny, and belief in Hugh? Is life more than shadows?\n\nCassavetes' jazz-scored improvisational film explores interracial friendships and relationships in Beat-Era (1950s) New York City.\n\n   General\n      Complete name : Shadows.1959.720p.BluRay.x264-CiNEFiLE.mkv\n      Format : Matroska\n      File size : 3.28 GiB\n      Duration : 1h 21mn\n      Overall bit rate : 5 734 Kbps\n   Video #1\n      ID : 1\n      Format : AVC\n      Format/Info : Advanced Video Codec\n      Format profile : &lt;a class=&quot;__cf_email__&quot; href=&quot;/cdn-cgi/l/email-protection&quot; data-cfemail=&quot;236b4a444b636f100d12&quot;&gt;[email&amp;#160;protected]&lt;/a&gt;&lt;script cf-hash='f9e31' type=&quot;text/javascript&quot;&gt;\n/* &lt;![CDATA[ */!function(){try{var t=&quot;currentScript&quot;in document?document.currentScript:function(){for(var t=document.getElementsByTagName(&quot;script&quot;),e=t.length;e--;)if(t[e].getAttribute(&quot;cf-hash&quot;))return t[e]}();if(t&amp;&amp;t.previousSibling){var e,r,n,i,c=t.previousSibling,a=c.getAttribute(&quot;data-cfemail&quot;);if(a){for(e=&quot;&quot;,r=parseInt(a.substr(0,2),16),n=2;a.length-n;n+=2)i=parseInt(a.substr(n,2),16)^r,e+=String.fromCharCode(i);e=document.createTextNode(e),c.parentNode.replaceChild(e,c)}}}catch(u){}}();/* ]]&gt; */&lt;/script&gt;\n      Format settings, CABAC : Yes\n      Format settings, ReFrames : 5 frames\n      Muxing mode : Container profile=&lt;a class=&quot;__cf_email__&quot; href=&quot;/cdn-cgi/l/email-protection&quot; data-cfemail=&quot;42172c292c2d352c02716c73&quot;&gt;[email&amp;#160;protected]&lt;/a&gt;&lt;script cf-hash='f9e31' type=&quot;text/javascript&quot;&gt;\n/* &lt;![CDATA[ */!function(){try{var t=&quot;currentScript&quot;in document?document.currentScript:function(){for(var t=document.getElementsByTagName(&quot;script&quot;),e=t.length;e--;)if(t[e].getAttribute(&quot;cf-hash&quot;))return t[e]}();if(t&amp;&amp;t.previousSibling){var e,r,n,i,c=t.previousSibling,a=c.getAttribute(&quot;data-cfemail&quot;);if(a){for(e=&quot;&quot;,r=parseInt(a.substr(0,2),16),n=2;a.length-n;n+=2)i=parseInt(a.substr(n,2),16)^r,e+=String.fromCharCode(i);e=document.createTextNode(e),c.parentNode.replaceChild(e,c)}}}catch(u){}}();/* ]]&gt; */&lt;/script&gt;\n      Codec ID : V_MPEG4/ISO/AVC\n      Duration : 1h 21mn\n      Bit rate : 4 980 Kbps\n      Nominal bit rate : 5 094 Kbps\n      Width : 960 pixels\n      Height : 720 pixels\n      Display aspect ratio : 4:3\n      Frame rate : 23.976 fps\n      Resolution : 24 bits\n      Stream size : 2.85 GiB (87%)\n   Audio #2\n      ID : 2\n      Format : AC-3\n      Format/Info : Audio Coding 3\n      Codec ID : A_AC3\n      Duration : 1h 21mn\n      Bit rate mode : Constant\n      Bit rate : 640 Kbps\n      Channel(s) : 2 channels\n      Channel positions : L R\n      Sampling rate : 48.0 KHz\n      Stream size : 375 MiB (11%)\n   Text #3\n      ID : 3\n      Format : UTF-8\n      Codec ID : S_TEXT/UTF8\n      Codec ID/Info : UTF-8 Plain Text\n &lt;a href=&quot;\nhttp://www.imdb.com/title/tt0053270/&quot; rel=&quot;nofollow&quot; target=&quot;_NEW&quot;&gt;\nhttp://www.imdb.com/title/tt0053270/&lt;/a&gt;\n\nEnglish subtitles muxed in mkv","torrent":{"xt":"urn:btih:a74528528090724fc3960b52a29d0ac556be44a8","amp;dn":"Shadows.1959.720p.BluRay.x264-CiNEFiLE","amp;tr":["udp%3A%2F%2Ftracker.openbittorrent.com%3A80","udp%3A%2F%2Fopen.demonii.com%3A1337","udp%3A%2F%2Ftracker.coppersurfer.tk%3A6969","udp%3A%2F%2Fexodus.desync.com%3A6969"],"infoHash":"a74528528090724fc3960b52a29d0ac556be44a8","infoHashBuffer":{"type":"Buffer","data":[167,69,40,82,128,144,114,79,195,150,11,82,162,157,10,197,86,190,68,168]},"announce":[],"urlList":[]}}